<svg width="469" height="66" viewBox="0 0 469 66" fill="none" xmlns="http://www.w3.org/2000/svg">
<path d="M377.635 0.331543H468.355L447.065 23.9632L468.355 47.5949H377.635V0.331543Z" fill="#D82646"/>
<path d="M461.762 3.09375H379.351V5.96338H458.844L461.762 3.09375Z" fill="#E5D6D6"/>
<path d="M461.762 44.3662H379.351V41.4966H458.844L461.762 44.3662Z" fill="#E5D6D6"/>
<path d="M377.633 0.334717L405.51 17.9291L377.633 18.0467V0.334717Z" fill="#AD132F"/>
<path d="M377.635 3.98804L399.429 17.9428L396.937 19.1302L377.635 7.18028V3.98804Z" fill="#A58C8C"/>
<path d="M91.5154 0.269043H0.795775L22.086 23.9007L0.795775 47.5324H91.5154V0.269043Z" fill="#D82646"/>
<path d="M7.70605 3.09375H90.1172V5.96338H10.6246L7.70605 3.09375Z" fill="#E5D6D6"/>
<path d="M7.70605 44.3662H90.1172V41.4966H10.6246L7.70605 44.3662Z" fill="#E5D6D6"/>
<path d="M91.5176 0.272217L63.6412 17.8666L91.5176 17.9842V0.272217Z" fill="#AD132F"/>
<path d="M91.5154 3.98804L69.7214 17.9428L72.2139 19.1302L91.5154 7.18028V3.98804Z" fill="#A58C8C"/>
<path d="M63.6533 17.865H405.466V65.1283H63.6533V17.865Z" fill="#FF3D60"/>
<rect x="63.6411" y="21.0938" width="341.869" height="2.86963" fill="#F8F3F3"/>
<rect x="63.6411" y="59.03" width="341.869" height="2.86963" fill="#F8F3F3"/>
</svg>
