<svg width="26" height="27" viewBox="0 0 26 27" fill="none" xmlns="http://www.w3.org/2000/svg">
<circle cx="12.8532" cy="13.5958" r="12.7957" fill="#FF3D60"/>
<path d="M5.94348 16.3396C5.94348 14.4228 7.4973 12.869 9.41404 12.869H12.5273C14.444 12.869 15.9978 14.4228 15.9978 16.3396V18.4796H5.94348V16.3396Z" fill="white"/>
<path fill-rule="evenodd" clip-rule="evenodd" d="M16.8655 19.3472H5.07593V16.3395C5.07593 13.9436 7.01821 12.0013 9.41413 12.0013H12.5273C14.9233 12.0013 16.8655 13.9436 16.8655 16.3395V19.3472ZM9.41404 12.869C7.4973 12.869 5.94348 14.4228 5.94348 16.3396V18.4796H15.9978V16.3396C15.9978 14.4228 14.444 12.869 12.5273 12.869H9.41404Z" fill="#FF3D60"/>
<path d="M14.0493 9.79059C14.0493 11.4908 12.6711 12.869 10.9709 12.869C9.27072 12.869 7.89246 11.4908 7.89246 9.79059C7.89246 8.09042 9.27072 6.71216 10.9709 6.71216C12.6711 6.71216 14.0493 8.09042 14.0493 9.79059Z" fill="white"/>
<path fill-rule="evenodd" clip-rule="evenodd" d="M14.9167 9.79056C14.9167 11.9699 13.15 13.7366 10.9706 13.7366C8.79125 13.7366 7.02454 11.9699 7.02454 9.79056C7.02454 7.6112 8.79125 5.84448 10.9706 5.84448C13.15 5.84448 14.9167 7.6112 14.9167 9.79056ZM10.9709 12.869C12.6711 12.869 14.0493 11.4908 14.0493 9.79059C14.0493 8.09042 12.6711 6.71216 10.9709 6.71216C9.27072 6.71216 7.89246 8.09042 7.89246 9.79059C7.89246 11.4908 9.27072 12.869 10.9709 12.869Z" fill="#FF3D60"/>
<path d="M9.70838 16.3396C9.70838 14.4228 11.2622 12.869 13.1789 12.869H16.2922C18.2089 12.869 19.7627 14.4228 19.7627 16.3396V18.4796H9.70838V16.3396Z" fill="white"/>
<path fill-rule="evenodd" clip-rule="evenodd" d="M20.6304 19.3472H8.84082V16.3395C8.84082 13.9436 10.7831 12.0013 13.179 12.0013H16.2922C18.6882 12.0013 20.6304 13.9436 20.6304 16.3395V19.3472ZM13.1789 12.869C11.2622 12.869 9.70838 14.4228 9.70838 16.3396V18.4796H19.7627V16.3396C19.7627 14.4228 18.2089 12.869 16.2922 12.869H13.1789Z" fill="#FF3D60"/>
<path d="M17.8142 9.79059C17.8142 11.4908 16.436 12.869 14.7358 12.869C13.0356 12.869 11.6574 11.4908 11.6574 9.79059C11.6574 8.09042 13.0356 6.71216 14.7358 6.71216C16.436 6.71216 17.8142 8.09042 17.8142 9.79059Z" fill="white"/>
<path fill-rule="evenodd" clip-rule="evenodd" d="M18.6816 9.79056C18.6816 11.9699 16.9149 13.7366 14.7355 13.7366C12.5562 13.7366 10.7894 11.9699 10.7894 9.79056C10.7894 7.6112 12.5562 5.84448 14.7355 5.84448C16.9149 5.84448 18.6816 7.6112 18.6816 9.79056ZM14.7358 12.869C16.436 12.869 17.8142 11.4908 17.8142 9.79059C17.8142 8.09042 16.436 6.71216 14.7358 6.71216C13.0356 6.71216 11.6574 8.09042 11.6574 9.79059C11.6574 11.4908 13.0356 12.869 14.7358 12.869Z" fill="#FF3D60"/>
</svg>
