<svg width="19" height="23" viewBox="0 0 19 23" fill="none" xmlns="http://www.w3.org/2000/svg">
<path fill-rule="evenodd" clip-rule="evenodd" d="M9.14494 6.354H6.92933C6.92933 6.354 -2.80895 15.7767 1.27486 19.8601C5.35868 23.9436 12.8209 24.0542 17.015 19.8601C21.2091 15.666 11.3231 6.354 11.3231 6.354H9.14494ZM9.78217 19.0872L9.80834 20.1151H8.52978L8.5544 19.0742C8.03962 19.0212 7.57626 18.9089 7.16432 18.7372C6.57676 18.4807 6.07195 18.1124 5.6499 17.6325L6.64296 16.0187C7.10639 16.4987 7.55741 16.838 7.99601 17.0366C8.19242 17.1256 8.39299 17.1946 8.5977 17.2437L8.6401 15.4513C8.08355 15.3161 7.61645 15.1411 7.2388 14.9264C6.82502 14.6864 6.51469 14.3885 6.3078 14.0326C6.10092 13.6685 5.99747 13.2423 5.99747 12.754C5.99747 12.3651 6.08437 12.0093 6.25815 11.6865C6.44021 11.3555 6.6802 11.0741 6.97812 10.8424C7.28431 10.6024 7.63602 10.4204 8.03325 10.2962C8.30267 10.2064 8.5797 10.1471 8.86434 10.1182L8.84011 9.20386H10.1187L10.0954 10.1509C10.477 10.2028 10.8323 10.2927 11.1614 10.4204C11.7158 10.6355 12.2124 10.9707 12.651 11.4258L11.7572 12.8906C11.4262 12.5513 11.0538 12.2989 10.64 12.1334C10.4482 12.0566 10.2518 11.9977 10.0511 11.9565L10.0088 13.679C10.3219 13.7567 10.6109 13.8498 10.8759 13.9581C11.2483 14.1071 11.5669 14.2892 11.8317 14.5043C12.1048 14.7195 12.3117 14.976 12.4524 15.2739C12.6013 15.5636 12.6758 15.9029 12.6758 16.2918C12.6758 16.8959 12.5268 17.409 12.2289 17.8311C11.9393 18.2448 11.5379 18.5634 11.0248 18.7869C10.6532 18.9453 10.239 19.0454 9.78217 19.0872ZM8.95219 13.4322C8.81989 13.3848 8.69978 13.3325 8.59184 13.2754C8.45116 13.1926 8.33944 13.1016 8.25669 13.0023C8.17393 12.903 8.13255 12.783 8.13255 12.6423C8.13255 12.4851 8.18221 12.3527 8.28151 12.2451C8.38082 12.1292 8.51736 12.0424 8.69115 11.9844C8.76009 11.9594 8.83377 11.939 8.91219 11.9235L8.95219 13.4322ZM9.98213 17.2476C9.90415 17.2725 9.82238 17.292 9.73682 17.3061L9.69672 15.7314C9.73868 15.7476 9.78003 15.7648 9.82076 15.7829C9.96972 15.8408 10.098 15.907 10.2056 15.9815C10.3131 16.056 10.3959 16.1429 10.4538 16.2422C10.52 16.3415 10.5531 16.4532 10.5531 16.5773C10.5531 16.7428 10.5035 16.8835 10.4042 16.9994C10.3049 17.107 10.1642 17.1897 9.98213 17.2476Z" fill="white"/>
<path d="M4.56169 1.0463C4.30001 0.718878 4.53313 0.234137 4.95227 0.234138L13.9743 0.234142C14.4124 0.234143 14.6387 0.757493 14.3386 1.07664L10.9499 4.68075H7.4664L4.56169 1.0463Z" fill="white"/>
</svg>
