<svg width="150" height="140" viewBox="0 0 150 140" fill="none" xmlns="http://www.w3.org/2000/svg">
<path d="M25.0493 114.078H18.0507V111.394C18.0507 111.113 17.9454 110.868 17.7349 110.657C17.5595 110.447 17.3315 110.341 17.0509 110.341H14.1567C13.876 110.341 13.6305 110.447 13.42 110.657C13.2446 110.868 13.1569 111.113 13.1569 111.394V117.445C13.1569 117.726 13.2446 117.972 13.42 118.182C13.6305 118.392 13.876 118.498 14.1567 118.498H18.8926C23.2427 118.568 25.4177 120.883 25.4177 125.444V132.758C25.4177 137.389 23.2427 139.704 18.8926 139.704H12.6833C8.33323 139.704 6.1582 137.389 6.1582 132.758V129.233H13.1569V133.021C13.1569 133.302 13.2446 133.547 13.42 133.758C13.6305 133.968 13.876 134.074 14.1567 134.074H17.4192C17.6999 134.074 17.9279 133.968 18.1033 133.758C18.3138 133.547 18.419 133.302 18.419 133.021V126.338C18.419 126.058 18.3138 125.812 18.1033 125.602C17.9279 125.391 17.6999 125.286 17.4192 125.286H12.6833C8.33323 125.286 6.1582 122.971 6.1582 118.34V111.552C6.1582 106.921 8.33323 104.606 12.6833 104.606H18.5243C22.8743 104.606 25.0493 106.921 25.0493 111.552V114.078Z" fill="black"/>
<path d="M43.5199 105.132C47.8699 105.132 50.045 107.447 50.045 112.078V118.866C50.045 123.497 47.8699 125.812 43.5199 125.812H37.5737V139.178H30.2066V105.132H43.5199ZM42.6779 119.708V111.236C42.6779 110.955 42.5727 110.71 42.3622 110.499C42.1868 110.289 41.9588 110.184 41.6781 110.184H37.5737V120.76H41.6781C41.9588 120.76 42.1868 120.655 42.3622 120.445C42.5727 120.234 42.6779 119.989 42.6779 119.708Z" fill="black"/>
<path d="M61.1107 132.969H69.1618V139.178H53.7437V105.132H61.1107V132.969Z" fill="black"/>
<path d="M80.0215 105.132V139.178H72.6545V105.132H80.0215Z" fill="black"/>
<path d="M83.5546 111.394V105.132H101.972V111.394H96.4469V139.178H89.0798V111.394H83.5546Z" fill="black"/>
<path d="M121.891 105.132V139.178H114.524V105.132H121.891Z" fill="black"/>
<path d="M125.424 111.394V105.132H143.842V111.394H138.316V139.178H130.949V111.394H125.424Z" fill="black"/>
<path d="M86.1046 6.45146C87.237 3.47041 85.0349 0.278412 81.846 0.278412H5.45774C2.55904 0.278412 0.209167 2.55379 0.209167 5.36058L0.0115967 88.0256C0.0115967 90.8324 2.36147 93.1078 5.26018 93.1078H50.0464C51.9383 93.1078 53.6333 91.9385 54.305 90.1699L86.1046 6.45146Z" fill="#FF3D60"/>
<path d="M144.74 93.287C147.638 93.287 149.988 91.0116 149.988 88.2048V5.47002C149.988 2.6632 147.638 0.387854 144.74 0.387854L102.238 0.285934C100.349 0.281404 98.6529 1.44317 97.9748 3.20631L65.7782 86.9318C64.6324 89.9117 66.8276 93.1153 70.0201 93.1224L144.74 93.287Z" fill="#FF3D60"/>
<path d="M59.8301 31.8714H47.7126L49.3509 27.5517C49.5222 27.0999 49.4899 26.7047 49.254 26.3659C49.0788 26.0271 48.7482 25.8577 48.2623 25.8577H43.2513C42.7654 25.8577 42.2759 26.0271 41.783 26.3659C41.3508 26.7047 41.0491 27.0999 40.8777 27.5517L37.1835 37.2922C37.0122 37.7439 37.0141 38.1392 37.1893 38.478C37.4253 38.8168 37.7862 38.9862 38.2721 38.9862H46.4719C53.9608 39.0991 56.3132 42.8259 53.5291 50.1666L49.0639 61.9399C46.2371 69.3935 41.0578 73.1203 33.5261 73.1203H22.7752C15.2435 73.1203 12.8911 69.3935 15.7179 61.9399L17.8702 56.265H29.9878L27.6749 62.3634C27.5035 62.8152 27.5055 63.2104 27.6807 63.5492C27.9166 63.888 28.2775 64.0574 28.7635 64.0574H34.4122C34.8982 64.0574 35.3572 63.888 35.7894 63.5492C36.2823 63.2104 36.6145 62.8152 36.7858 62.3634L40.8655 51.6065C41.0368 51.1548 41.0045 50.7595 40.7686 50.4207C40.5934 50.0819 40.2628 49.9125 39.7769 49.9125H31.5771C24.0454 49.9125 21.693 46.1857 24.5199 38.7321L28.6638 27.8058C31.4907 20.3521 36.67 16.6253 44.2017 16.6253H54.3148C61.8465 16.6253 64.199 20.3521 61.3721 27.8058L59.8301 31.8714Z" fill="white"/>
<path d="M131.603 18.4997L110.819 73.3007H98.0639L118.848 18.4997H131.603Z" fill="white"/>
<path d="M96.0527 64.4132H120.089L116.449 73.5641H92.4124L96.0527 64.4132Z" fill="white"/>
<path d="M96.0527 64.4132H120.089L116.449 73.5641H92.4124L96.0527 64.4132Z" fill="white"/>
<path d="M112.949 18.4438H136.986L133.346 27.5947H109.309L112.949 18.4438Z" fill="white"/>
<path d="M112.949 18.4438H136.986L133.346 27.5947H109.309L112.949 18.4438Z" fill="white"/>
</svg>
