<svg width="159" height="139" viewBox="0 0 159 139" fill="none" xmlns="http://www.w3.org/2000/svg">
<path d="M36.0344 0.11084H85.3048V138.304H52.9397C50.1782 138.304 47.9397 136.066 47.9397 133.304V117.551C47.9397 114.902 50.0059 112.712 52.6506 112.559L67.7243 111.686V89.0796L59.8744 85.413C42.2793 77.1945 31.0344 59.5311 31.0344 40.1112V5.11084C31.0344 2.34942 33.273 0.11084 36.0344 0.11084Z" fill="#FF3D60"/>
<path d="M121.107 0.11084H71.8368V138.304H104.202C106.963 138.304 109.202 136.066 109.202 133.304V117.551C109.202 114.902 107.136 112.712 104.491 112.559L89.4173 111.686V89.0796L97.2672 85.413C114.862 77.1945 126.107 59.5311 126.107 40.1112V5.11084C126.107 2.34942 123.869 0.11084 121.107 0.11084Z" fill="#FF3D60"/>
<path d="M44.0133 31.4736C44.0133 31.4736 30.791 15.0603 18.3953 18.1656C5.99965 21.2709 -0.611255 40.3456 11.371 54.9843C23.3533 69.623 68.1682 83.1937 68.1682 83.1937" stroke="#FF3D60" stroke-width="9"/>
<path d="M115.087 31.4736C115.087 31.4736 128.309 15.0603 140.705 18.1656C153.1 21.2709 159.711 40.3456 147.729 54.9843C135.747 69.623 92.3382 82.1956 92.3382 82.1956" stroke="#FF3D60" stroke-width="9"/>
</svg>
