<svg width="53" height="53" viewBox="0 0 53 53" fill="none" xmlns="http://www.w3.org/2000/svg">
<g id="User">
<circle id="Ellipse 11" cx="26.4952" cy="26.7381" r="14.2957" stroke="white" stroke-width="3"/>
<g id="icon usuarios">
<path id="Subtract" fill-rule="evenodd" clip-rule="evenodd" d="M23.458 26.2089C21.4763 26.6728 20.0005 28.4512 20.0005 30.5744V33.3389H32.9891V30.5744C32.9891 28.4512 31.5134 26.6728 29.5317 26.2089C28.6834 26.839 27.6327 27.2118 26.4948 27.2118C25.357 27.2118 24.3062 26.839 23.458 26.2089Z" fill="white"/>
<path id="Ellipse 9" d="M30.4719 22.1141C30.4719 24.3104 28.6915 26.0909 26.4951 26.0909C24.2987 26.0909 22.5182 24.3104 22.5182 22.1141C22.5182 19.9177 24.2987 18.1372 26.4951 18.1372C28.6915 18.1372 30.4719 19.9177 30.4719 22.1141Z" fill="white"/>
</g>
</g>
</svg>
