<svg width="26" height="27" viewBox="0 0 26 27" fill="none" xmlns="http://www.w3.org/2000/svg">
<circle cx="12.8532" cy="13.5958" r="12.7957" fill="#FF3D60"/>
<path d="M7.82593 16.3396C7.82593 14.4228 9.37975 12.869 11.2965 12.869H14.4097C16.3264 12.869 17.8803 14.4228 17.8803 16.3396V18.4796H7.82593V16.3396Z" fill="white"/>
<path fill-rule="evenodd" clip-rule="evenodd" d="M18.748 19.3472H6.95837V16.3395C6.95837 13.9436 8.90066 12.0013 11.2966 12.0013H14.4098C16.8057 12.0013 18.748 13.9436 18.748 16.3395V19.3472ZM11.2965 12.869C9.37975 12.869 7.82593 14.4228 7.82593 16.3396V18.4796H17.8803V16.3396C17.8803 14.4228 16.3264 12.869 14.4097 12.869H11.2965Z" fill="#FF3D60"/>
<path d="M15.9318 9.79059C15.9318 11.4908 14.5535 12.869 12.8533 12.869C11.1532 12.869 9.7749 11.4908 9.7749 9.79059C9.7749 8.09042 11.1532 6.71216 12.8533 6.71216C14.5535 6.71216 15.9318 8.09042 15.9318 9.79059Z" fill="white"/>
<path fill-rule="evenodd" clip-rule="evenodd" d="M16.7991 9.79056C16.7991 11.9699 15.0324 13.7366 12.8531 13.7366C10.6737 13.7366 8.90698 11.9699 8.90698 9.79056C8.90698 7.6112 10.6737 5.84448 12.8531 5.84448C15.0324 5.84448 16.7991 7.6112 16.7991 9.79056ZM12.8533 12.869C14.5535 12.869 15.9318 11.4908 15.9318 9.79059C15.9318 8.09042 14.5535 6.71216 12.8533 6.71216C11.1532 6.71216 9.7749 8.09042 9.7749 9.79059C9.7749 11.4908 11.1532 12.869 12.8533 12.869Z" fill="#FF3D60"/>
</svg>
