<svg width="40" height="36" viewBox="0 0 40 36" fill="none" xmlns="http://www.w3.org/2000/svg">
<path d="M27.9862 1.94716C28.3432 1.00721 27.6489 0.000732422 26.6434 0.000732422H2.55732C1.64332 0.000732422 0.902384 0.718184 0.902384 1.60319L0.840088 27.6684C0.840088 28.5534 1.58103 29.2709 2.49502 29.2709H16.6166C17.2131 29.2709 17.7476 28.9022 17.9594 28.3445L27.9862 1.94716Z" fill="#FF3D60"/>
<path d="M38.2627 35.0132C39.1767 35.0132 39.9176 34.2958 39.9176 33.4108V7.32357C39.9176 6.43855 39.1767 5.72111 38.2627 5.72111L24.8613 5.68897C24.2657 5.68754 23.731 6.05386 23.5172 6.6098L13.3652 33.0094C13.0039 33.9489 13.6961 34.9591 14.7027 34.9613L38.2627 35.0132Z" fill="white"/>
<path d="M19.2443 9.56758H15.0556L15.6219 8.07435C15.6811 7.9182 15.6699 7.78156 15.5884 7.66445C15.5278 7.54733 15.4136 7.48877 15.2456 7.48877H13.5134C13.3454 7.48877 13.1762 7.54733 13.0058 7.66445C12.8564 7.78156 12.7521 7.9182 12.6929 8.07435L11.4159 11.4414C11.3567 11.5976 11.3573 11.7342 11.4179 11.8513C11.4995 11.9685 11.6242 12.027 11.7922 12.027H14.6267C17.2154 12.0661 18.0286 13.3543 17.0662 15.8918L15.5227 19.9616C14.5455 22.5382 12.7551 23.8264 10.1516 23.8264H6.43525C3.8317 23.8264 3.01853 22.5382 3.99572 19.9616L4.73972 17.9999H8.92849L8.12897 20.108C8.06974 20.2642 8.07041 20.4008 8.13098 20.5179C8.21253 20.635 8.3373 20.6936 8.50527 20.6936H10.4579C10.6259 20.6936 10.7846 20.635 10.934 20.5179C11.1044 20.4008 11.2192 20.2642 11.2784 20.108L12.6887 16.3896C12.7479 16.2334 12.7367 16.0968 12.6552 15.9797C12.5946 15.8626 12.4803 15.804 12.3124 15.804H9.47787C6.87433 15.804 6.06116 14.5157 7.03835 11.9392L8.47083 8.16219C9.44802 5.58564 11.2384 4.29736 13.8419 4.29736H17.3378C19.9414 4.29736 20.7545 5.58564 19.7773 8.16219L19.2443 9.56758Z" fill="white"/>
<path d="M34.6407 10.0301L26.8415 30.5941H22.0551L29.8543 10.0301H34.6407Z" fill="#FF3D60"/>
<path d="M21.3003 27.2591H30.3201L28.9541 30.693H19.9343L21.3003 27.2591Z" fill="#FF3D60"/>
<path d="M27.6407 10.0092H36.6605L35.2945 13.443H26.2747L27.6407 10.0092Z" fill="#FF3D60"/>
</svg>
