<svg width="246" height="138" viewBox="0 0 246 138" fill="none" xmlns="http://www.w3.org/2000/svg">
<path d="M175.506 6.32385C176.316 3.45622 174.162 0.608643 171.182 0.608643H7.47929C3.75674 0.608643 0.739014 3.30433 0.739014 6.62959V105.311C0.739014 108.636 3.75674 111.332 7.4793 111.332H142.439C144.45 111.332 146.216 109.996 146.763 108.06L175.506 6.32385Z" fill="#FF3D60"/>
<path d="M146.745 132.07C145.903 134.947 148.06 137.826 151.058 137.826H238.521C242.243 137.826 245.261 135.131 245.261 131.805V33.1241C245.261 29.7988 242.243 27.1032 238.521 27.1032H180.849C178.854 27.1032 177.097 28.419 176.537 30.3339L146.745 132.07Z" fill="#FF3D60"/>
<path d="M55.6881 46.4721H46.7235L47.7286 43.1847C47.8337 42.841 47.7908 42.5402 47.6 42.2823C47.4542 42.0245 47.2015 41.8956 46.842 41.8956H43.1349C42.7754 41.8956 42.4214 42.0245 42.073 42.2823C41.7695 42.5402 41.5652 42.841 41.4601 43.1847L39.1938 50.5974C39.0887 50.9411 39.1091 51.2419 39.255 51.4998C39.4457 51.7576 39.7209 51.8865 40.0804 51.8865H46.1466C51.6923 51.9725 53.6112 54.8086 51.9033 60.3949L49.164 69.3545C47.4299 75.0268 43.7768 77.8629 38.2048 77.8629H30.2513C24.6793 77.8629 22.7605 75.0268 24.4946 69.3545L25.815 65.0359H34.7795L33.3607 69.6768C33.2556 70.0206 33.2759 70.3214 33.4218 70.5792C33.6126 70.837 33.8877 70.966 34.2472 70.966H38.4262C38.7856 70.966 39.1171 70.837 39.4206 70.5792C39.7691 70.3214 39.9958 70.0206 40.1009 69.6768L42.6037 61.4907C42.7088 61.1469 42.6659 60.8461 42.4752 60.5883C42.3293 60.3305 42.0766 60.2015 41.7172 60.2015H35.6509C30.079 60.2015 28.1601 57.3654 29.8943 51.6931L32.4364 43.3781C34.1706 37.7059 37.8237 34.8697 43.3956 34.8697H50.8773C56.4493 34.8697 58.3682 37.7059 56.634 43.3781L55.6881 46.4721Z" fill="white"/>
<path d="M82.6971 35.5143C88.2691 35.5143 90.188 38.3504 88.4538 44.0227L85.9116 52.3377C84.1774 58.01 80.5243 60.8461 74.9524 60.8461H67.3359L62.3304 77.2183H52.894L65.6442 35.5143H82.6971ZM76.1599 53.369L79.3327 42.9914C79.4378 42.6476 79.3949 42.3468 79.2042 42.089C79.0583 41.8311 78.8056 41.7022 78.4462 41.7022H73.1888L69.2277 54.6582H74.4851C74.8446 54.6582 75.1761 54.5293 75.4796 54.2714C75.828 54.0136 76.0548 53.7128 76.1599 53.369Z" fill="white"/>
<path d="M94.8043 69.6123H105.117L102.792 77.2183H83.0425L95.7927 35.5143H105.229L94.8043 69.6123Z" fill="white"/>
<path d="M129.452 35.5143L116.702 77.2183H107.265L120.016 35.5143H129.452Z" fill="white"/>
<path d="M131.632 43.1847L133.977 35.5143H157.568L155.223 43.1847H148.146L137.741 77.2183H128.305L138.71 43.1847H131.632Z" fill="white"/>
<path d="M192.063 61.8831L179.313 103.587H169.877L182.627 61.8831H192.063Z" fill="white"/>
<path d="M194.244 69.5536L196.589 61.8831H220.18L217.835 69.5536H210.757L200.352 103.587H190.916L201.321 69.5536H194.244Z" fill="white"/>
<path d="M138.769 99.8306C138.549 99.6771 138.161 99.7158 138.161 99.7158L23.93 99.7158C22.9676 93.6173 18.1505 88.8002 12.0521 87.8378V24.0881C18.1505 23.1257 22.9676 18.3086 23.93 12.2101H163.043C163.043 12.2101 163.364 12.2153 163.53 12.0684C163.696 11.9214 163.668 11.6782 163.668 11.6782V10.5171C163.668 10.5171 163.668 10.3044 163.53 10.136C163.393 9.9676 163.251 9.96338 163.043 9.96338C97.5247 9.96338 87.559 9.96338 21.8587 9.96338C21.8587 16.6203 16.4622 22.0168 9.8053 22.0168V89.9091C16.4622 89.9091 21.8587 95.3056 21.8587 101.963L138.161 101.963C138.161 101.963 138.611 102.008 138.821 101.788C139.031 101.568 138.978 101.342 138.978 101.342V100.281C138.978 100.281 138.988 99.9841 138.769 99.8306Z" fill="white"/>
<path fill-rule="evenodd" clip-rule="evenodd" d="M21.8587 101.963C21.8587 95.3057 16.4622 89.9092 9.80531 89.9092V22.0169C16.4622 22.0169 21.8587 16.6204 21.8587 9.96345H163.043C163.251 9.96345 163.393 9.96766 163.53 10.1361C163.668 10.3045 163.668 10.5171 163.668 10.5171V11.6782C163.668 11.6782 163.696 11.9215 163.53 12.0684C163.364 12.2154 163.043 12.2102 163.043 12.2102H23.93C22.9677 18.3087 18.1505 23.1258 12.0521 24.0882V87.8379C18.1505 88.8003 22.9677 93.6174 23.93 99.7159L138.161 99.7159C138.161 99.7159 138.549 99.6772 138.769 99.8307C138.988 99.9842 138.978 100.281 138.978 100.281V101.342C138.978 101.342 139.031 101.568 138.821 101.788C138.611 102.008 138.161 101.963 138.161 101.963L21.8587 101.963ZM138.107 103.648L20.1737 103.648V101.963C20.1737 96.2363 15.5316 91.5942 9.80531 91.5942H8.12024V20.3318H9.80531C15.5316 20.3318 20.1737 15.6897 20.1737 9.96345V8.27838H163.043C163.047 8.27838 163.052 8.27833 163.058 8.27828C163.147 8.27756 163.451 8.2751 163.769 8.36434C164.205 8.48698 164.564 8.73785 164.836 9.07043C165.119 9.41809 165.239 9.77892 165.292 10.0097C165.32 10.1315 165.335 10.2384 165.343 10.3216C165.347 10.3639 165.35 10.4016 165.351 10.4341L165.352 10.4794L165.353 10.4992L165.353 10.5084L165.353 10.5128V10.5161C165.353 10.5166 165.353 10.5171 163.668 10.5171L165.353 10.5161V11.6296C165.354 11.6555 165.355 11.6837 165.355 11.714C165.355 11.8135 165.349 11.9485 165.322 12.1042C165.272 12.3958 165.122 12.9098 164.648 13.3295C164.202 13.7247 163.691 13.8245 163.505 13.856C163.378 13.8774 163.268 13.8869 163.189 13.8912C163.148 13.8935 163.112 13.8945 163.084 13.895L163.045 13.8953L25.3031 13.8953C23.8687 19.5657 19.4075 24.0268 13.7371 25.4612V86.4649C19.4075 87.8992 23.8687 92.3604 25.3031 98.0308L138.105 98.0308C138.126 98.0297 138.149 98.0287 138.173 98.0279C138.258 98.0253 138.375 98.0252 138.511 98.0356C138.717 98.0513 139.243 98.1071 139.733 98.449C140.287 98.8353 140.501 99.3672 140.584 99.6784C140.628 99.8431 140.647 99.9876 140.656 100.094C140.66 100.149 140.662 100.197 140.663 100.237M138.107 103.648C138.136 103.649 138.169 103.65 138.205 103.651C138.305 103.653 138.446 103.65 138.608 103.631C138.848 103.603 139.515 103.502 140.041 102.951C140.41 102.563 140.584 102.124 140.644 101.742C140.672 101.559 140.673 101.397 140.665 101.268C140.664 101.262 140.664 101.257 140.663 101.252L140.663 100.293C140.663 100.293 140.663 100.294 140.663 100.293" fill="white"/>
<path d="M225.849 34.7372H186.637C185.139 34.7372 183.923 35.5655 183.923 37.6782C183.923 39.7909 185.34 40.299 186.637 40.3712C187.934 40.4434 220.669 40.3712 220.669 40.3712C220.669 40.3712 222.607 49.0767 232.22 51.9221V112.816C222.362 115.994 220.669 124.517 220.669 124.517H159.362C159.142 124.517 157.008 124.601 157.008 127.194C157.008 129.787 158.668 130.087 159.362 130.087H225.828C225.828 130.087 224.515 117.544 237.902 118.05V46.8008C224.392 47.0756 225.849 34.7372 225.849 34.7372Z" fill="white"/>
</svg>
